<?xml version="1.0" encoding="UTF-8"?>
<svg width="160px" height="17px" viewBox="0 0 160 17" version="1.1" xmlns="http://www.w3.org/2000/svg" xmlns:xlink="http://www.w3.org/1999/xlink">
    <title>Group 3</title>
    <defs>
        <polygon id="path-1" points="0 0.000177222222 159.464437 0.000177222222 159.464437 15.4049235 0 15.4049235"></polygon>
    </defs>
    <g id="Page-1" stroke="none" stroke-width="1" fill="none" fill-rule="evenodd">
        <g id="Sumosan-–-Courchevel" transform="translate(-71.000000, -44.000000)">
            <g id="Group-3" transform="translate(71.000000, 44.525000)">
                <mask id="mask-2" fill="white">
                    <use xlink:href="#path-1"></use>
                </mask>
                <g id="Clip-2"></g>
                <path d="M0.383863333,13.6230131 C0.12570963,13.7630187 -0.000118148148,13.9750946 -0.000118148148,14.2592409 C-0.000118148148,14.5587465 0.132798519,14.7790928 0.402176296,14.9179169 C0.673326296,15.0626483 1.07916519,15.1329465 1.6143763,15.1329465 L8.17041704,15.1329465 C11.4023596,15.1329465 13.8072652,14.6993428 15.3833615,13.8209113 C16.9517781,12.9460243 17.7463244,11.6753409 17.7463244,10.0082706 C17.7463244,8.8025687 17.2311985,7.81544093 16.2145337,7.05456685 C15.1890078,6.28778537 13.6708041,5.75552796 11.6557874,5.45661315 L5.06371148,4.5220613 C4.44048,4.44349278 3.98974481,4.29403537 3.72332074,4.08195944 C3.45335222,3.87224648 3.31689111,3.58219278 3.31689111,3.22302241 C3.31689111,2.80300574 3.53192074,2.49050389 3.95607259,2.28847056 C4.38554111,2.0876187 5.16000222,1.99073722 6.29599667,1.99073722 L14.2131041,1.99073722 C14.8351541,1.99073722 15.2439467,1.91807611 15.4424356,1.77925204 C15.7567096,1.62093352 15.9168004,1.40472241 15.9168004,1.14420574 C15.9168004,0.844109444 15.7720689,0.621400185 15.4849689,0.480803889 C15.2014133,0.340798333 14.7938022,0.270500185 14.2538652,0.270500185 L7.2346837,0.270500185 C5.13519111,0.270500185 3.48348,0.54578537 2.27659667,1.10167241 C1.07089481,1.65755944 0.470702222,2.45742241 0.470702222,3.50362426 C0.470702222,4.28812796 0.808015185,4.89068352 1.49091148,5.31601685 C2.11414296,5.75552796 3.31689111,6.09697611 5.10270037,6.33858907 L11.4419393,7.24065019 C12.7220744,7.43854833 13.6524911,7.77467981 14.2302356,8.23309463 C14.8156596,8.69387241 15.1045319,9.31592241 15.1045319,10.0962909 C15.1045319,11.2635946 14.6283948,12.1048094 13.6790744,12.6293872 C12.7291633,13.1521928 11.1229393,13.4138909 8.85154111,13.4138909 L1.66045407,13.4138909 C1.06380593,13.4138909 0.640244815,13.4824169 0.383863333,13.6230131 M37.7812967,14.9515891 C37.9791948,14.7696409 38.0802115,14.4654094 38.0802115,14.0459835 L38.0802115,1.29897981 C38.0802115,0.934492778 37.9638356,0.645029815 37.7381726,0.423502037 C37.4563893,0.218515 37.1450689,0.119270556 36.8012578,0.119270556 C36.3511133,0.119270556 36.0149819,0.227966852 35.8046781,0.438270556 C35.588467,0.647983519 35.4868596,0.934492778 35.4868596,1.29897981 L35.4868596,7.31094833 C35.4868596,9.42816315 34.9746874,11.0450206 33.9521152,12.1709724 C32.9029596,13.2224909 31.3463578,13.7458872 29.2704948,13.7458872 C27.3683096,13.7458872 26.0125596,13.3630872 25.1884763,12.6010317 C24.3638022,11.8354317 23.9567819,10.5399372 23.9567819,8.7328613 L23.9567819,1.29897981 C23.9567819,0.913226111 23.8232744,0.621400185 23.5710281,0.423502037 C23.3164189,0.218515 23.0175041,0.119270556 22.6766467,0.119270556 C22.2235485,0.119270556 21.8933244,0.24214463 21.6771133,0.48139463 C21.4650374,0.723598333 21.3592948,0.994748333 21.3592948,1.29897981 L21.3592948,9.57407611 C21.3592948,11.4650372 21.9978856,12.9129428 23.2738856,13.9095224 C24.551067,14.9043298 26.3941781,15.4046872 28.8044004,15.4046872 C30.165467,15.4046872 31.4148837,15.1991094 32.5508781,14.8027224 C33.6839189,14.3992465 34.6615948,13.7884206 35.4868596,12.9596113 L35.4868596,14.0459835 C35.4868596,14.3909761 35.6038263,14.6703965 35.8442578,14.8907428 C36.0882337,15.1099076 36.4048707,15.2227391 36.8012578,15.2227391 C37.2596726,15.2227391 37.5857615,15.1335372 37.7812967,14.9515891 M59.5441856,15.2487317 C59.9653837,15.2321909 60.2778856,15.1388539 60.4870078,14.9651761 C60.693767,14.7932706 60.7995096,14.4984909 60.7995096,14.0731576 L60.7995096,8.12439833 C60.7995096,5.92920574 61.3169985,4.30644093 62.35493,3.25492241 C63.3869541,2.20990204 64.941193,1.68945944 67.0129207,1.68945944 C68.9410985,1.68945944 70.3009837,2.05867241 71.0908041,2.80714093 C71.890667,3.55088352 72.2841004,4.86350944 72.2841004,6.73674833 L72.2841004,14.0731576 C72.2841004,14.4376446 72.4028393,14.7229724 72.6255485,14.9362298 C72.852393,15.1471243 73.1967948,15.2487317 73.64753,15.2487317 C74.0752263,15.2321909 74.3942263,15.1335372 74.606893,14.9515891 C74.8183781,14.7696409 74.9229393,14.4795872 74.9229393,14.0731576 L74.9229393,5.88608167 C74.9229393,3.99925574 74.2660356,2.55135019 72.9463207,1.54118352 C71.6277874,0.531016852 69.7941281,0.027115 67.4364819,0.027115 C66.0464689,0.027115 64.8200911,0.223831667 63.75853,0.616083519 C62.6957874,1.00715389 61.4546411,1.7367187 60.0368633,2.80182426 C59.1838337,1.75621315 58.2610967,1.05382241 57.2674707,0.691698333 C56.2189059,0.251596481 54.8548856,0.027115 53.1878152,0.027115 C51.9366263,0.027115 50.7580985,0.218515 49.6545948,0.601315 C48.5440022,0.983524259 47.5527393,1.58785204 46.6772615,2.41134463 L46.6772615,1.32497241 C46.6772615,0.965802037 46.56443,0.676339074 46.3523541,0.46603537 C46.1432319,0.256913148 45.8212781,0.148216852 45.3959448,0.148216852 C45.0273226,0.148216852 44.7024152,0.251596481 44.4200411,0.452448333 C44.1890615,0.671613148 44.0803652,0.965802037 44.0803652,1.33028907 L44.0803652,14.0731576 C44.0803652,14.4376446 44.1890615,14.7229724 44.4200411,14.9362298 C44.6474763,15.1471243 44.9723837,15.2487317 45.3959448,15.2487317 C45.8502244,15.2321909 46.1780856,15.1288113 46.3771652,14.9362298 C46.5715189,14.7460113 46.6772615,14.4547761 46.6772615,14.0731576 L46.6772615,8.12439833 C46.6772615,5.94692796 47.1852985,4.33007056 48.2084615,3.27500759 C49.2239448,2.21285574 50.8053578,1.68945944 52.9290707,1.68945944 C54.796993,1.68945944 56.1633763,2.06930574 57.0128615,2.83490574 C57.8375356,3.66194278 58.2492819,4.95980019 58.2492819,6.73674833 L58.2492819,14.0731576 C58.2492819,14.4376446 58.3591596,14.7229724 58.5818689,14.9362298 C58.8022152,15.1471243 59.1288948,15.2487317 59.5441856,15.2487317 M79.2217596,7.71855944 C79.2217596,9.98877611 80.1250022,11.8307057 81.9249893,13.2467113 C83.725567,14.6656706 86.043043,15.3716057 88.8785985,15.3716057 C91.7153356,15.3716057 94.0345837,14.6562187 95.8133041,13.2372594 C97.6026578,11.8070761 98.4958578,9.96514648 98.4958578,7.71855944 C98.4958578,5.50269093 97.5843448,3.6666687 95.7719522,2.19808722 C93.9589689,0.732459444 91.6603967,-5.90740741e-05 88.8785985,-5.90740741e-05 C86.1275189,-5.90740741e-05 83.8283559,0.724189074 81.9858356,2.16677796 C80.1439059,3.61468352 79.2217596,5.46547426 79.2217596,7.71855944 M81.8605985,7.68488722 C81.8605985,5.91857241 82.5198652,4.47066685 83.8383985,3.34589648 C85.1592948,2.21876315 86.8375893,1.65874093 88.8785985,1.65874093 C90.88948,1.65874093 92.5660022,2.23707611 93.8975319,3.39197426 C95.2349689,4.54450944 95.8971893,5.976465 95.8971893,7.68488722 C95.8971893,9.4506113 95.2379226,10.8961539 93.9205707,12.0120631 C92.6032189,13.1297446 90.907793,13.6844502 88.8372467,13.6844502 C86.7353911,13.6844502 85.054143,13.1321076 83.7722356,12.0256502 C82.4962356,10.9191928 81.8605985,9.47542241 81.8605985,7.68488722 M104.472382,4.08195944 C104.201232,3.87224648 104.070678,3.58219278 104.070678,3.22302241 C104.070678,2.80300574 104.2798,2.49050389 104.706315,2.28847056 C105.135784,2.0876187 105.914971,1.99073722 107.047421,1.99073722 L114.962165,1.99073722 C115.58835,1.99073722 115.995371,1.91807611 116.195041,1.77925204 C116.509315,1.62093352 116.661726,1.40472241 116.661726,1.14420574 C116.661726,0.844109444 116.522902,0.621400185 116.238165,0.480803889 C115.952837,0.340798333 115.541091,0.270500185 115.003517,0.270500185 L107.984926,0.270500185 C105.883071,0.270500185 104.230178,0.54578537 103.024476,1.10167241 C101.818774,1.65755944 101.214447,2.45742241 101.214447,3.50362426 C101.214447,4.28812796 101.555895,4.89068352 102.2382,5.31601685 C102.86025,5.75552796 104.065952,6.09697611 105.849989,6.33858907 L112.191,7.24065019 C113.471136,7.43854833 114.401552,7.77467981 114.985204,8.23309463 C115.565311,8.69387241 115.855365,9.31592241 115.855365,10.0962909 C115.855365,11.2635946 115.377456,12.1048094 114.429317,12.6293872 C113.476452,13.1521928 111.867865,13.4138909 109.599421,13.4138909 L102.407743,13.4138909 C101.812867,13.4138909 101.388715,13.4824169 101.135878,13.6230131 C100.878906,13.7630187 100.747761,13.9750946 100.747761,14.2592409 C100.747761,14.5587465 100.883632,14.7790928 101.158917,14.9179169 C101.42475,15.0626483 101.826454,15.1329465 102.364619,15.1329465 L108.915343,15.1329465 C112.148467,15.1329465 114.556326,14.6993428 116.13065,13.8209113 C117.704974,12.9460243 118.494795,11.6753409 118.494795,10.0082706 C118.494795,8.8025687 117.982032,7.81544093 116.963004,7.05456685 C115.937478,6.28778537 114.425182,5.75552796 112.405439,5.45661315 L105.812773,4.5220613 C105.18836,4.44349278 104.743532,4.29403537 104.472382,4.08195944 M132.04816,15.0260224 C133.077821,14.778502 133.932623,14.4081076 134.615519,13.9290169 L134.615519,14.0465743 C134.615519,14.3903854 134.732486,14.6709872 134.970554,14.890152 C135.19858,15.1087261 135.506947,15.2227391 135.896836,15.2227391 C136.363521,15.1849317 136.661845,15.0827335 136.798306,14.9185076 C137.017471,14.7595983 137.12853,14.4701354 137.12853,14.0465743 L137.12853,4.97575019 C137.12853,3.20530019 136.661845,1.97124278 135.721976,1.26471685 C134.732486,0.601315 133.128624,0.271090926 130.918073,0.271090926 L124.069024,0.271090926 C123.560987,0.271090926 123.171689,0.341389074 122.918261,0.48139463 C122.662471,0.620809444 122.535461,0.843518704 122.535461,1.143615 C122.535461,1.40531315 122.662471,1.61975204 122.918261,1.77807056 C123.233717,1.89503722 123.61061,1.96120019 124.069024,1.96120019 L131.511767,1.96120019 C132.591641,1.96120019 133.382052,2.16618722 133.896587,2.59329278 C134.37686,3.11491685 134.615519,3.8362113 134.615519,4.76072056 L134.615519,5.06495204 L134.615519,5.36386685 C132.371886,5.36386685 130.386997,5.49442056 128.667941,5.74194093 C126.941797,5.99418722 125.444269,6.36162796 124.162952,6.8407187 C121.827163,7.76995389 120.662223,9.13515574 120.662223,10.9422317 C120.662223,12.3487854 121.339211,13.4416557 122.699687,14.2261594 C124.054256,15.0124354 125.944036,15.405278 128.367845,15.405278 C129.798028,15.405278 131.021452,15.277678 132.04816,15.0260224 M133.315889,13.0824854 C132.4475,13.666728 131.055715,13.9556002 129.152349,13.9556002 C127.186363,13.9556002 125.70065,13.6844502 124.685758,13.1433317 C123.676773,12.6010317 123.171689,11.8070761 123.171689,10.759102 C123.171689,9.4506113 124.083202,8.4995187 125.905047,7.90050759 C126.933526,7.55492426 128.139228,7.29381685 129.53633,7.11482241 C130.928115,6.93405574 132.623541,6.8407187 134.615519,6.8407187 L134.615519,10.1287817 C134.615519,11.5122965 134.180143,12.4988335 133.315889,13.0824854 M143.087332,14.9368206 C143.311813,15.1471243 143.642037,15.2487317 144.063826,15.2487317 C144.516334,15.2310094 144.843013,15.129402 145.040911,14.9368206 C145.240582,14.746602 145.338054,14.4547761 145.338054,14.0719761 L145.338054,8.12498907 C145.338054,5.9475187 145.849045,4.33007056 146.871617,3.27559833 C147.890054,2.21344648 149.464969,1.69005019 151.589273,1.69005019 C153.464284,1.69005019 154.82476,2.06989648 155.678971,2.83490574 C156.496556,3.6607613 156.912437,4.96039093 156.912437,6.73733907 L156.912437,14.0719761 C156.912437,14.4547761 157.011091,14.7495557 157.212534,14.9521798 C157.464189,15.1530317 157.790278,15.2487317 158.187847,15.2487317 C158.608454,15.2310094 158.931589,15.1388539 159.141893,14.9657669 C159.356923,14.7932706 159.464437,14.4990817 159.464437,14.0719761 L159.464437,5.88667241 C159.464437,3.99984648 158.82821,2.55135019 157.571704,1.54118352 C156.311063,0.531016852 154.454365,0.0259335185 152.016378,0.0259335185 C150.655311,0.0259335185 149.423026,0.223831667 148.316569,0.616083519 C147.213065,1.00774463 146.21235,1.606165 145.338054,2.41134463 L145.338054,1.32556315 C145.338054,0.965802037 145.230539,0.676929815 145.020236,0.466626111 C144.811113,0.257503889 144.488569,0.148216852 144.063826,0.148216852 C143.697567,0.148216852 143.367343,0.251596481 143.087332,0.453039074 C142.856352,0.671613148 142.746474,0.965802037 142.746474,1.33028907 L142.746474,14.0719761 C142.746474,14.4370539 142.856352,14.7229724 143.087332,14.9368206" id="Fill-1" fill="#FEFEFE" mask="url(#mask-2)"></path>
            </g>
        </g>
    </g>
</svg>