<?xml version="1.0" encoding="UTF-8"?>
<svg width="306px" height="213px" viewBox="0 0 306 213" version="1.1" xmlns="http://www.w3.org/2000/svg" xmlns:xlink="http://www.w3.org/1999/xlink">
    <title>Group 3</title>
    <defs>
        <polygon id="path-1" points="0 0.000788888889 304.21787 0.000788888889 304.21787 212.486884 0 212.486884"></polygon>
    </defs>
    <g id="Page-1" stroke="none" stroke-width="1" fill="none" fill-rule="evenodd">
        <g id="Sumosan-–-Home" transform="translate(-567.000000, -261.000000)">
            <g id="Group-3" transform="translate(567.857143, 261.000000)">
                <mask id="mask-2" fill="white">
                    <use xlink:href="#path-1"></use>
                </mask>
                <g id="Clip-2"></g>
                <path d="M0.732314286,174.436519 C0.239822222,174.703614 -0.000225396825,175.108202 -0.000225396825,175.649154 C-0.000225396825,176.221662 0.253346032,176.642027 0.767250794,176.906868 C1.28453651,177.182979 2.0587746,177.31709 3.07982222,177.31709 L15.5870921,177.31709 C21.7528222,177.31709 26.3407746,176.489884 29.3475683,174.814059 C32.3397111,173.144995 33.8555048,170.720852 33.8555048,167.540503 C33.8555048,165.240329 32.8727746,163.357138 30.9332349,161.905583 C28.9767905,160.442757 26.0804413,159.427344 22.2362984,158.85709 L9.66028254,157.074202 C8.47131429,156.924313 7.6114254,156.639186 7.10315556,156.234598 C6.58812381,155.834519 6.32779048,155.280043 6.32779048,154.595963 C6.32779048,153.794678 6.7380127,153.198503 7.5471873,152.813075 C8.36650476,152.428773 9.84398095,152.245075 12.0111714,152.245075 L27.1150127,152.245075 C28.301727,152.245075 29.0816,152.106456 29.4602667,151.841614 C30.0598222,151.539583 30.3652349,151.125979 30.3652349,150.630106 C30.3652349,150.057598 30.0891238,149.632725 29.5414095,149.364503 C29.0004571,149.097408 28.2228381,148.963297 27.1927746,148.963297 L13.8019492,148.963297 C9.79664762,148.963297 6.6456,149.488471 4.34317143,150.548963 C2.04299683,151.609456 0.897980952,153.135392 0.897980952,155.131281 C0.897980952,156.627916 1.54148889,157.77744 2.84428254,158.588868 C4.03325079,159.427344 6.32779048,160.078741 9.73466349,160.539678 L21.8283302,162.260583 C24.2705048,162.638122 26.0455048,163.279376 27.1476952,164.152789 C28.2645365,165.032963 28.8156317,166.219678 28.8156317,167.708424 C28.8156317,169.935344 27.9072825,171.54017 26.096219,172.540932 C24.2840286,173.538313 21.2197587,174.037567 16.8865048,174.037567 L3.16772698,174.037567 C2.02947302,174.037567 1.2214254,174.168297 0.732314286,174.436519 L0.732314286,174.436519 Z M0.888965079,195.480694 C0.888965079,200.159932 4.77029841,207.063837 13.7872984,207.063837 C15.0416317,207.063837 16.014219,207.063837 16.014219,206.179154 C16.014219,205.296725 15.0416317,205.296725 13.7872984,205.296725 C8.10729841,205.296725 2.88710794,201.472868 2.88710794,195.480694 C2.88710794,190.856678 5.16925079,188.861916 8.87928254,188.861916 L14.6145048,188.861916 C15.1577111,188.861916 15.5566635,188.603837 15.5566635,188.06063 C15.5566635,187.491503 15.1577111,187.261598 14.6145048,187.261598 L7.96529841,187.261598 C4.14256825,187.261598 0.888965079,189.888598 0.888965079,195.480694 L0.888965079,195.480694 Z M18.0371556,199.6449 C18.0371556,204.041265 20.7791079,207.06609 24.7731397,207.06609 C28.7660444,207.06609 31.5057429,204.041265 31.5057429,199.6449 C31.5057429,195.253043 28.7660444,192.22709 24.7731397,192.22709 C20.7791079,192.22709 18.0371556,195.253043 18.0371556,199.6449 L18.0371556,199.6449 Z M19.8651238,199.6449 C19.8651238,195.992344 21.7471873,193.711329 24.7731397,193.711329 C27.7979651,193.711329 29.6811556,195.992344 29.6811556,199.6449 C29.6811556,203.297456 27.7979651,205.581852 24.7731397,205.581852 C21.7471873,205.581852 19.8651238,203.297456 19.8651238,199.6449 L19.8651238,199.6449 Z M34.7886476,193.426202 L34.7886476,205.950376 C34.7886476,206.524011 35.046727,206.978186 35.6451556,206.978186 C36.2435841,206.978186 36.5005365,206.524011 36.5005365,205.950376 L36.5005365,199.189598 C36.5005365,195.653122 38.383727,193.712456 41.2090762,193.712456 C43.1790444,193.712456 44.774854,194.938614 44.774854,197.476583 L44.774854,205.950376 C44.774854,206.524011 45.0318063,206.978186 45.6313619,206.978186 C46.2297905,206.978186 46.4867429,206.524011 46.4867429,205.950376 L46.4867429,197.248932 C46.4867429,193.795852 43.918346,192.228217 41.2090762,192.228217 C38.8694571,192.228217 37.4426952,193.2549 36.5591397,194.594884 L36.5005365,194.594884 L36.5005365,193.426202 C36.5005365,192.855948 36.2435841,192.399519 35.6451556,192.399519 C35.046727,192.399519 34.7886476,192.855948 34.7886476,193.426202 L34.7886476,193.426202 Z M49.9420762,193.138821 C49.9420762,193.653852 50.3410286,193.881503 50.881981,193.881503 L51.9954413,193.881503 L51.9954413,203.584837 C51.9954413,205.979678 53.0209968,206.893662 55.419219,206.893662 L57.6720603,206.893662 C58.2152667,206.893662 58.615346,206.664884 58.615346,206.153233 C58.615346,205.638202 58.2152667,205.409424 57.6720603,205.409424 L56.3320762,205.409424 C54.4488857,205.409424 53.7073302,204.868471 53.7073302,203.584837 L53.7073302,193.881503 L57.0454571,193.881503 C57.5886635,193.881503 57.9876159,193.653852 57.9876159,193.138821 C57.9876159,192.62717 57.5886635,192.398392 57.0454571,192.398392 L53.7073302,192.398392 L53.7073302,189.202265 C53.7073302,188.633138 53.4503778,188.175583 52.8519492,188.175583 C52.2523937,188.175583 51.9954413,188.633138 51.9954413,189.202265 L51.9954413,192.398392 L50.881981,192.398392 C50.3410286,192.398392 49.9420762,192.62717 49.9420762,193.138821 L49.9420762,193.138821 Z M59.2149016,199.560376 C59.2149016,204.440217 62.239727,206.892535 66.7454095,206.892535 L71.2285524,206.892535 C71.7402032,206.892535 72.1684571,206.663757 72.1684571,206.093503 C72.1684571,205.552551 71.7402032,205.295598 71.2285524,205.295598 L66.8321873,205.295598 C62.9226794,205.295598 61.0394889,203.068678 61.0394889,200.073154 C61.0394889,199.873678 61.0676635,199.674202 61.0969651,199.474725 L71.3694254,199.474725 C72.0546317,199.474725 72.3386317,199.133249 72.3386317,198.560741 C72.3386317,194.852963 69.7150127,192.22709 66.1176794,192.22709 C61.3257429,192.22709 59.2149016,196.050948 59.2149016,199.560376 L59.2149016,199.560376 Z M61.2141714,198.104313 C61.5545206,195.451392 63.3791079,193.711329 65.9768063,193.711329 C68.5733778,193.711329 70.3979651,195.451392 70.7428222,198.104313 L61.2141714,198.104313 Z M72.0771714,176.971106 C72.4547111,176.623995 72.6474254,176.043598 72.6474254,175.24344 L72.6474254,150.924249 C72.6474254,150.2289 72.4254095,149.677805 71.9949016,149.255186 C71.4573302,148.864122 70.8634095,148.674789 70.2075048,148.674789 C69.3487429,148.674789 68.7074889,148.882154 68.3062825,149.28336 C67.8938063,149.68344 67.6999651,150.2289 67.6999651,150.924249 L67.6999651,162.394694 C67.6999651,166.432678 66.7228698,169.51836 64.7720603,171.666392 C62.7705365,173.672424 59.8009333,174.670932 55.8407111,174.670932 C52.2118222,174.670932 49.6253937,173.940646 48.0532508,172.48571 C46.479981,171.026265 45.7034889,168.554789 45.7034889,165.107344 L45.7034889,150.924249 C45.7034889,150.189456 45.4487905,149.632725 44.9675683,149.255186 C44.4818381,148.864122 43.9115841,148.674789 43.2613143,148.674789 C42.3969175,148.674789 41.7669333,148.908075 41.3544571,149.36563 C40.9498698,149.827694 40.7481397,150.344979 40.7481397,150.924249 L40.7481397,166.71217 C40.7481397,170.319646 41.9664095,173.081884 44.4006952,174.981979 C46.8372349,176.880948 50.3534254,177.835503 54.9515206,177.835503 C57.5480921,177.835503 59.9316635,177.443313 62.098854,176.687106 C64.2604095,175.917376 66.1255683,174.752075 67.6999651,173.170916 L67.6999651,175.24344 C67.6999651,175.901598 67.9231079,176.434662 68.3817905,176.855027 C68.8472349,177.273138 69.4512984,177.488392 70.2075048,177.488392 C71.0820444,177.488392 71.7041397,177.318217 72.0771714,176.971106 L72.0771714,176.971106 Z M75.6778857,193.426202 L75.6778857,205.950376 C75.6778857,206.524011 75.9359651,206.978186 76.5355206,206.978186 C77.1328222,206.978186 77.3909016,206.524011 77.3909016,205.950376 L77.3909016,199.189598 C77.3909016,195.653122 79.2729651,193.712456 81.7297905,193.712456 C84.0108063,193.712456 85.4657429,194.793233 85.4657429,198.334217 L85.4657429,205.950376 C85.4657429,206.524011 85.7226952,206.978186 86.3211238,206.978186 C86.9195524,206.978186 87.1776317,206.524011 87.1776317,205.950376 L87.1776317,199.189598 C87.1776317,195.653122 89.0889968,193.712456 91.5153937,193.712456 C93.7975365,193.712456 95.252473,194.793233 95.252473,198.334217 L95.252473,205.950376 C95.252473,206.524011 95.5094254,206.978186 96.107854,206.978186 C96.7096635,206.978186 96.9643619,206.524011 96.9643619,205.950376 L96.9643619,197.306408 C96.9643619,194.111408 95.0236952,192.228217 91.8275683,192.228217 C89.5465524,192.228217 87.8042349,193.367598 86.8361556,195.250789 C85.951473,193.055424 84.2102825,192.228217 81.9574413,192.228217 C79.845473,192.228217 78.3330603,193.2549 77.4483778,194.594884 L77.3909016,194.594884 L77.3909016,193.426202 C77.3909016,192.855948 77.1328222,192.399519 76.5355206,192.399519 C75.9359651,192.399519 75.6778857,192.855948 75.6778857,193.426202 L75.6778857,193.426202 Z M100.961775,193.426202 L100.961775,211.457948 C100.961775,212.029329 101.218727,212.486884 101.817156,212.486884 C102.415584,212.486884 102.673663,212.029329 102.673663,211.515424 L102.673663,206.893662 L106.725171,206.893662 C111.175632,206.893662 113.742902,204.383868 113.742902,200.531837 C113.742902,197.535186 111.973537,192.228217 104.385552,192.228217 C101.189425,192.228217 100.961775,192.456995 100.961775,193.426202 L100.961775,193.426202 Z M102.673663,193.825154 L104.897203,193.825154 C109.18087,193.825154 111.918314,197.021281 111.918314,200.245583 C111.918314,203.756138 109.978775,205.294471 106.209013,205.294471 L102.673663,205.294471 L102.673663,193.825154 Z M113.595267,177.537979 C114.398806,177.506424 114.994981,177.32836 115.393933,176.997027 C115.788378,176.669075 115.990108,176.10671 115.990108,175.295281 L115.990108,163.946551 C115.990108,159.758678 116.977346,156.662852 118.957457,154.655694 C120.926298,152.663186 123.891394,151.670313 127.843727,151.670313 C131.522203,151.670313 134.116521,152.374678 135.623298,153.802567 C137.149235,155.22144 137.899806,157.725598 137.899806,161.299265 L137.899806,175.295281 C137.899806,175.99063 138.12633,176.534963 138.551203,176.941805 C138.983965,177.344138 139.640997,177.537979 140.500886,177.537979 C141.316822,177.506424 141.925394,177.318217 142.331108,176.971106 C142.734568,176.623995 142.934044,176.070646 142.934044,175.295281 L142.934044,159.676408 C142.934044,156.076821 141.680838,153.314583 139.163156,151.38744 C136.647727,149.460297 133.149568,148.498979 128.651775,148.498979 C125.999981,148.498979 123.660362,148.874265 121.635171,149.622583 C119.607727,150.368646 117.239933,151.760471 114.535171,153.792424 C112.907806,151.797662 111.147457,150.457678 109.25187,149.766837 C107.251473,148.927233 104.649267,148.498979 101.468917,148.498979 C99.0819651,148.498979 96.8336317,148.864122 94.7284254,149.594408 C92.6096952,150.323567 90.7186159,151.475344 89.0484254,153.047487 L89.0484254,150.974963 C89.0484254,150.289757 88.8331714,149.737535 88.4285841,149.336329 C88.0296317,148.937376 87.4154254,148.728884 86.6039968,148.728884 C85.9007587,148.728884 85.2809175,148.927233 84.742219,149.310408 C84.3015683,149.727392 84.0942032,150.289757 84.0942032,150.985106 L84.0942032,175.295281 C84.0942032,175.99063 84.3015683,176.534963 84.742219,176.941805 C85.1761079,177.344138 85.7959492,177.537979 86.6039968,177.537979 C87.4706476,177.506424 88.0961238,177.309202 88.4759175,176.941805 C88.8466952,176.578916 89.0484254,176.023313 89.0484254,175.295281 L89.0484254,163.946551 C89.0484254,159.792487 90.0176317,156.707932 91.9695683,154.695138 C93.906854,152.668821 96.9237905,151.670313 100.975298,151.670313 C104.538822,151.670313 107.145537,152.394963 108.76614,153.855535 C110.33941,155.433313 111.124917,157.909297 111.124917,161.299265 L111.124917,175.295281 C111.124917,175.99063 111.334537,176.534963 111.75941,176.941805 C112.179775,177.344138 112.802997,177.537979 113.595267,177.537979 L113.595267,177.537979 Z M116.082521,199.6449 C116.082521,204.041265 118.824473,207.06609 122.818505,207.06609 C126.81141,207.06609 129.549981,204.041265 129.549981,199.6449 C129.549981,195.253043 126.81141,192.22709 122.818505,192.22709 C118.824473,192.22709 116.082521,195.253043 116.082521,199.6449 L116.082521,199.6449 Z M117.910489,199.6449 C117.910489,195.992344 119.792552,193.711329 122.818505,193.711329 C125.842203,193.711329 127.725394,195.992344 127.725394,199.6449 C127.725394,203.297456 125.842203,205.581852 122.818505,205.581852 C119.792552,205.581852 117.910489,203.297456 117.910489,199.6449 L117.910489,199.6449 Z M133.090965,193.426202 L133.090965,205.950376 C133.090965,206.524011 133.347917,206.978186 133.946346,206.978186 C134.545902,206.978186 134.802854,206.524011 134.802854,205.950376 L134.802854,198.018662 C134.802854,195.28009 136.199187,193.825154 138.882537,193.825154 L139.31079,193.825154 C139.938521,193.825154 140.279997,193.5389 140.279997,193.027249 C140.279997,192.399519 139.398695,192.228217 138.568108,192.228217 C136.79987,192.228217 135.26041,193.081344 134.86033,194.339059 L134.802854,194.339059 L134.802854,193.426202 C134.802854,192.855948 134.545902,192.399519 133.946346,192.399519 C133.347917,192.399519 133.090965,192.855948 133.090965,193.426202 L133.090965,193.426202 Z M140.82433,202.75763 C140.82433,205.979678 143.163949,207.063837 146.417552,207.063837 C148.24214,207.063837 149.726378,206.606281 150.694457,205.638202 C150.694457,206.35271 150.75306,206.893662 151.495743,206.893662 C152.236171,206.893662 152.293648,206.35271 152.293648,205.638202 L152.293648,196.621202 C152.293648,193.881503 151.152013,192.398392 147.556933,192.398392 L143.077171,192.398392 C142.536219,192.398392 142.107965,192.656471 142.107965,193.196297 C142.107965,193.768805 142.536219,193.995329 143.077171,193.995329 L147.671886,193.995329 C149.753425,193.995329 150.581759,194.651233 150.581759,196.736154 L150.581759,197.419106 L149.612552,197.419106 C143.620378,197.419106 140.82433,199.533329 140.82433,202.75763 L140.82433,202.75763 Z M142.648917,202.89963 C142.648917,199.130995 148.014489,198.905598 150.581759,198.905598 L150.581759,202.554773 C150.639235,204.266662 149.555076,205.580725 146.388251,205.580725 C144.30333,205.580725 142.648917,204.668995 142.648917,202.89963 L142.648917,202.89963 Z M184.69106,99.254281 C182.492314,96.5855825 180.280044,92.1509 180.647441,87.1222968 C180.869457,84.0704238 182.118156,81.5178048 183.221473,79.5241698 C181.617775,81.0681381 179.963362,82.5557571 177.829981,83.5689159 C177.717283,89.1993286 179.740219,93.3319794 181.995314,96.4345667 C182.769552,97.5052016 183.533648,98.7471381 184.69106,99.254281 L184.69106,99.254281 Z M138.12633,100.723868 C137.328425,97.7339794 140.586537,94.6809794 141.925394,93.2497095 C142.120362,93.0423444 142.722171,92.5926778 142.291663,92.5137889 C136.104521,91.8015349 129.910616,91.0937889 125.871505,88.2244873 C125.86587,88.0971381 125.714854,88.1298206 125.748663,88.3473286 C123.076584,100.890662 133.601489,106.031963 145.601616,106.605598 C156.67987,107.129646 168.673235,104.282884 176.482108,102.440265 C167.82687,103.409471 156.256124,105.904614 145.601616,104.522932 C142.421267,104.110456 138.782235,103.176186 138.12633,100.723868 L138.12633,100.723868 Z M121.951854,28.4300905 C118.373679,31.1821857 114.865378,35.5830587 114.229759,40.8009952 C113.756425,44.7386778 116.330457,47.9483286 118.274505,50.4817889 C120.033727,52.7706937 121.827886,55.0336778 123.910552,56.6092016 C129.631124,53.9968524 136.092124,52.1260587 144.620013,52.321027 C138.03279,54.025027 131.959473,56.2474397 126.489092,59.0603921 C128.173933,61.055154 130.35014,62.5529159 132.371949,64.2073286 C130.076283,63.1930429 127.631854,61.267027 125.381267,59.7951857 C113.483695,66.5469476 104.053092,76.0147413 102.711981,93.1325032 C102.008743,102.13936 104.750695,109.549281 108.349156,115.185329 C112.073838,120.99944 116.575013,125.684313 122.200917,129.277138 C122.462378,125.372138 122.478156,119.691011 123.787711,115.921249 C124.496584,113.898313 126.043933,112.054567 127.955298,113.960297 C125.482695,110.133059 122.962759,105.164186 121.827886,99.6216778 C120.6006,93.5945667 121.375965,86.9160587 124.033394,82.5873127 C131.553759,88.320281 144.547886,90.164027 156.261759,88.1039 C166.066521,86.3773603 173.679298,82.7439635 180.402886,77.6860587 C181.332648,76.9850746 182.486679,75.7205984 183.221473,75.6033921 C184.45214,75.4084238 187.149013,76.5613286 187.999886,77.0741063 C190.596457,78.6338524 192.440203,81.5347095 192.53487,85.1624714 C192.601362,87.7793286 191.917283,90.4311222 191.188124,92.7583444 C189.142648,99.2430111 185.772965,105.441424 182.730108,110.773186 C183.100886,110.907297 183.810886,109.771297 184.570473,110.284075 C185.488965,112.78936 184.151235,115.91336 183.58887,118.119995 C184.591886,117.178963 185.422473,115.980979 186.285743,114.817932 C188.82033,111.386265 191.264759,107.543249 193.509711,103.543583 C196.478187,98.2523921 199.330584,92.3537571 200.744949,86.0201063 C204.244235,70.3065667 197.892552,56.8323444 189.594568,49.7469952 C185.099029,58.5194397 178.938933,66.4736937 170.109013,71.3140905 C165.525568,73.831773 159.598759,75.2529 153.321457,74.255519 C147.512981,73.337027 142.855156,70.996281 138.738283,68.3737889 C141.841997,69.5999476 145.444965,70.990646 149.033283,71.4369317 C153.232425,71.9609794 157.269283,71.7096619 161.16414,70.5792968 C167.609362,68.7141381 173.574489,64.5916302 177.70714,60.0408683 C181.753013,55.589281 185.510378,49.5914714 187.510775,42.7675825 C189.955203,34.4132492 188.463076,26.9142968 183.58887,22.1809635 C178.965981,17.6854238 172.5726,15.3063603 164.594679,13.9652492 C162.567235,19.9179794 160.060822,28.0795984 154.424775,30.6355984 C152.948425,31.305027 151.271473,31.3658841 149.522394,30.881281 C151.867648,30.5082492 154.157679,29.6776619 155.770394,28.0581857 C157.766283,26.0679317 159.364346,22.6148524 160.428219,18.8721381 C161.542806,14.9502333 162.228013,10.355519 161.905695,6.6173127 C161.621695,3.40428095 159.905298,0.684868254 156.997679,0.000788888889 L154.913886,0.000788888889 C147.182775,1.17059841 143.985521,6.87877302 142.168822,13.9652492 C128.794902,16.392773 115.805283,20.9593127 108.469743,29.7779635 C104.632362,34.3907095 102.661267,41.1131698 103.083886,49.1339159 C103.474949,56.5314397 106.091806,62.8143762 109.333013,67.515027 C113.054314,63.5559317 117.153156,59.985646 122.318124,57.4668365 C120.362806,55.6174556 118.162933,53.9303603 116.313552,51.7079476 C114.3526,49.3457889 112.085108,46.2432016 112.391648,41.9088206 C112.860473,35.4658524 117.398838,31.1314714 121.951854,28.4300905 L121.951854,28.4300905 Z M151.135108,163.172313 C151.135108,167.502186 152.858267,171.017249 156.292187,173.71863 C159.727235,176.425646 164.148394,177.772392 169.557917,177.772392 C174.969695,177.772392 179.394235,176.407614 182.787584,173.700598 C186.201219,170.97217 187.905219,167.458233 187.905219,163.172313 C187.905219,158.944995 186.166283,155.442329 182.708695,152.640646 C179.249981,149.844598 174.864886,148.447138 169.557917,148.447138 C164.309552,148.447138 159.92333,149.828821 156.408267,152.579789 C152.89433,155.343154 151.135108,158.873995 151.135108,163.172313 L151.135108,163.172313 Z M156.169346,163.106948 C156.169346,159.738392 157.42706,156.976154 159.942489,154.830376 C162.462425,152.68009 165.664187,151.61171 169.557917,151.61171 C173.394171,151.61171 176.592552,152.715027 179.132775,154.917154 C181.684267,157.117027 182.947616,159.848837 182.947616,163.106948 C182.947616,166.47663 181.689902,169.233233 179.176727,171.363233 C176.663552,173.495487 173.429108,174.553725 169.479029,174.553725 C165.469219,174.553725 162.261822,173.499995 159.816267,171.389154 C157.381981,169.278313 156.169346,166.523963 156.169346,163.106948 L156.169346,163.106948 Z M156.57506,193.426202 L156.57506,205.950376 C156.57506,206.524011 156.832013,206.978186 157.430441,206.978186 C158.02887,206.978186 158.286949,206.524011 158.286949,205.950376 L158.286949,198.018662 C158.286949,195.28009 159.683283,193.825154 162.367759,193.825154 L162.796013,193.825154 C163.422616,193.825154 163.764092,193.5389 163.764092,193.027249 C163.764092,192.399519 162.881663,192.228217 162.052203,192.228217 C160.285092,192.228217 158.743378,193.081344 158.344425,194.339059 L158.286949,194.339059 L158.286949,193.426202 C158.286949,192.855948 158.02887,192.399519 157.430441,192.399519 C156.832013,192.399519 156.57506,192.855948 156.57506,193.426202 L156.57506,193.426202 Z M168.958362,204.69717 C169.444092,205.437598 169.813743,206.122805 170.241997,206.663757 L169.128537,208.349725 C168.246108,209.747186 166.988394,211.175075 166.988394,211.745329 C166.988394,212.114979 167.217171,212.48463 167.788552,212.48463 C168.300203,212.48463 169.186013,211.457948 170.071822,210.004138 L172.12406,206.663757 C173.893425,203.840662 176.919378,197.76171 176.919378,193.6809 C176.919378,192.825519 176.777378,192.313868 176.063997,192.313868 C175.322441,192.313868 175.235663,193.024995 175.09141,194.30863 C174.749933,197.333456 173.466298,200.815837 171.924584,203.783186 C171.669886,204.268916 171.35433,204.725344 171.126679,205.1829 C170.897902,204.725344 170.585727,204.268916 170.299473,203.783186 C168.474886,200.815837 167.217171,197.333456 166.875695,194.30863 C166.732568,193.024995 166.646917,192.313868 165.903108,192.313868 C165.193108,192.313868 165.051108,192.825519 165.051108,193.6809 C165.051108,196.277471 167.04587,201.813217 168.958362,204.69717 L168.958362,204.69717 Z M185.706473,205.294471 C185.706473,205.922202 186.991235,207.064963 190.160314,207.064963 C194.211822,207.064963 196.265187,205.008217 196.265187,201.471741 L196.265187,188.203757 C196.265187,187.633503 195.978933,187.177075 195.35233,187.177075 C194.7246,187.177075 194.439473,187.633503 194.439473,188.203757 L194.439473,201.643043 C194.439473,203.925186 193.011584,205.465773 190.13214,205.465773 C187.875917,205.465773 187.192965,204.43909 186.450283,204.43909 C185.993854,204.43909 185.706473,204.809868 185.706473,205.294471 L185.706473,205.294471 Z M199.233663,202.75763 C199.233663,205.979678 201.573283,207.063837 204.826886,207.063837 C206.651473,207.063837 208.135711,206.606281 209.107171,205.638202 C209.107171,206.35271 209.162394,206.893662 209.905076,206.893662 C210.645505,206.893662 210.702981,206.35271 210.702981,205.638202 L210.702981,196.621202 C210.702981,193.881503 209.561346,192.398392 205.966267,192.398392 L201.486505,192.398392 C200.945552,192.398392 200.517298,192.656471 200.517298,193.196297 C200.517298,193.768805 200.945552,193.995329 201.486505,193.995329 L206.082346,193.995329 C208.163886,193.995329 208.991092,194.651233 208.991092,196.736154 L208.991092,197.419106 L208.021886,197.419106 C202.029711,197.419106 199.233663,199.533329 199.233663,202.75763 L199.233663,202.75763 Z M201.059378,202.89963 C201.059378,199.130995 206.422695,198.905598 208.991092,198.905598 L208.991092,202.554773 C209.049695,204.266662 207.96441,205.580725 204.797584,205.580725 C202.712663,205.580725 201.059378,204.668995 201.059378,202.89963 L201.059378,202.89963 Z M214.584314,193.426202 L214.584314,211.457948 C214.584314,212.029329 214.842394,212.486884 215.440822,212.486884 C216.039251,212.486884 216.296203,212.029329 216.296203,211.515424 L216.296203,206.893662 L220.348838,206.893662 C224.799298,206.893662 227.366568,204.383868 227.366568,200.531837 C227.366568,197.535186 225.597203,192.228217 218.008092,192.228217 C214.813092,192.228217 214.584314,192.456995 214.584314,193.426202 L214.584314,193.426202 Z M216.296203,193.825154 L218.52087,193.825154 C222.80341,193.825154 225.541981,197.021281 225.541981,200.245583 C225.541981,203.756138 223.601314,205.294471 219.834933,205.294471 L216.296203,205.294471 L216.296203,193.825154 Z M229.365838,202.75763 C229.365838,205.979678 231.705457,207.063837 234.95906,207.063837 C236.784775,207.063837 238.267886,206.606281 239.235965,205.638202 C239.235965,206.35271 239.294568,206.893662 240.037251,206.893662 C240.778806,206.893662 240.835156,206.35271 240.835156,205.638202 L240.835156,196.621202 C240.835156,193.881503 239.694648,192.398392 236.098441,192.398392 L231.619806,192.398392 C231.078854,192.398392 230.6506,192.656471 230.6506,193.196297 C230.6506,193.768805 231.078854,193.995329 231.619806,193.995329 L236.214521,193.995329 C238.29606,193.995329 239.124394,194.651233 239.124394,196.736154 L239.124394,197.419106 L238.155187,197.419106 C232.163013,197.419106 229.365838,199.533329 229.365838,202.75763 L229.365838,202.75763 Z M231.191552,202.89963 C231.191552,199.130995 236.555997,198.905598 239.124394,198.905598 L239.124394,202.554773 C239.182997,204.266662 238.097711,205.580725 234.930886,205.580725 C232.844838,205.580725 231.191552,204.668995 231.191552,202.89963 L231.191552,202.89963 Z M244.860743,193.426202 L244.860743,205.950376 C244.860743,206.524011 245.117695,206.978186 245.716124,206.978186 C246.314552,206.978186 246.572632,206.524011 246.572632,205.950376 L246.572632,199.189598 C246.572632,195.653122 248.454695,193.712456 251.280044,193.712456 C253.250013,193.712456 254.845822,194.938614 254.845822,197.476583 L254.845822,205.950376 C254.845822,206.524011 255.102775,206.978186 255.70233,206.978186 C256.300759,206.978186 256.557711,206.524011 256.557711,205.950376 L256.557711,197.248932 C256.557711,193.795852 253.990441,192.228217 251.280044,192.228217 C248.940425,192.228217 247.51479,193.2549 246.630108,194.594884 L246.572632,194.594884 L246.572632,193.426202 C246.572632,192.855948 246.314552,192.399519 245.716124,192.399519 C245.117695,192.399519 244.860743,192.855948 244.860743,193.426202 L244.860743,193.426202 Z M199.306917,156.234598 C198.789632,155.834519 198.540568,155.280043 198.540568,154.595963 C198.540568,153.794678 198.939521,153.198503 199.753203,152.813075 C200.572521,152.428773 202.059013,152.245075 204.219441,152.245075 L219.318775,152.245075 C220.513378,152.245075 221.28987,152.106456 221.67079,151.841614 C222.270346,151.539583 222.561108,151.125979 222.561108,150.630106 C222.561108,150.057598 222.296267,149.632725 221.75306,149.364503 C221.208727,149.097408 220.423219,148.963297 219.397663,148.963297 L206.007965,148.963297 C201.998156,148.963297 198.844854,149.488471 196.544679,150.548963 C194.244505,151.609456 193.0916,153.135392 193.0916,155.131281 C193.0916,156.627916 193.742997,157.77744 195.044663,158.588868 C196.231378,159.427344 198.531552,160.078741 201.935044,160.539678 L214.032092,162.260583 C216.474267,162.638122 218.249267,163.279376 219.362727,164.152789 C220.469425,165.032963 221.022775,166.219678 221.022775,167.708424 C221.022775,169.935344 220.111044,171.54017 218.302235,172.540932 C216.48441,173.538313 213.415632,174.037567 209.088013,174.037567 L195.368108,174.037567 C194.233235,174.037567 193.42406,174.168297 192.941711,174.436519 C192.451473,174.703614 192.201283,175.108202 192.201283,175.649154 C192.201283,176.221662 192.460489,176.642027 192.985663,176.906868 C193.492806,177.182979 194.259156,177.31709 195.285838,177.31709 L207.782965,177.31709 C213.950949,177.31709 218.544537,176.489884 221.547949,174.814059 C224.551362,173.144995 226.05814,170.720852 226.05814,167.540503 C226.05814,165.240329 225.079917,163.357138 223.13587,161.905583 C221.179425,160.442757 218.294346,159.427344 214.441187,158.85709 L201.864044,157.074202 C200.672822,156.924313 199.824203,156.639186 199.306917,156.234598 L199.306917,156.234598 Z M251.914537,177.114233 C253.87887,176.6409 255.509616,175.934281 256.81241,175.020297 L256.81241,175.244567 C256.81241,175.900471 257.035552,176.435789 257.489727,176.8539 C257.924743,177.270884 258.513029,177.489519 259.256838,177.489519 C260.147156,177.416265 260.716283,177.221297 260.976616,176.907995 C261.394727,176.60371 261.6066,176.052614 261.6066,175.244567 L261.6066,157.938598 C261.6066,154.562154 260.716283,152.206757 258.923251,150.860011 C257.035552,149.594408 253.97579,148.964424 249.758616,148.964424 L236.692362,148.964424 C235.723156,148.964424 234.980473,149.098535 234.496997,149.36563 C234.009013,149.631598 233.766711,150.056471 233.766711,150.628979 C233.766711,151.128233 234.009013,151.537329 234.496997,151.83936 C235.098806,152.062503 235.817822,152.188725 236.692362,152.188725 L250.891235,152.188725 C252.951362,152.188725 254.459267,152.579789 255.44087,153.394598 C256.357108,154.388598 256.81241,155.765773 256.81241,157.529503 L256.81241,158.1099 L256.81241,158.680154 C252.532124,158.680154 248.745457,158.929217 245.465933,159.401424 C242.172886,159.882646 239.315981,160.58363 236.871552,161.497614 C232.415457,163.27036 230.193044,165.874821 230.193044,169.322265 C230.193044,172.005614 231.484568,174.090535 234.080013,175.58717 C236.664187,177.087186 240.26941,177.835503 244.893425,177.835503 C247.621854,177.835503 249.955838,177.593202 251.914537,177.114233 L251.914537,177.114233 Z M254.333044,173.405329 C252.676378,174.518789 250.021203,175.069884 246.39006,175.069884 C242.639457,175.069884 239.805092,174.553725 237.868933,173.521408 C235.944044,172.486837 234.980473,170.97217 234.980473,168.9729 C234.980473,166.47663 236.71941,164.661059 240.195029,163.519424 C242.157108,162.860138 244.457283,162.360884 247.1226,162.019408 C249.777775,161.675678 253.012219,161.497614 256.81241,161.497614 L256.81241,167.770408 C256.81241,170.409805 255.981822,172.291868 254.333044,173.405329 L254.333044,173.405329 Z M260.069394,199.560376 C260.069394,204.440217 263.094219,206.892535 267.601029,206.892535 L272.083044,206.892535 C272.594695,206.892535 273.022949,206.663757 273.022949,206.093503 C273.022949,205.552551 272.594695,205.295598 272.083044,205.295598 L267.687806,205.295598 C263.777171,205.295598 261.895108,203.068678 261.895108,200.073154 C261.895108,199.873678 261.92441,199.674202 261.952584,199.474725 L272.223917,199.474725 C272.910251,199.474725 273.194251,199.133249 273.194251,198.560741 C273.194251,194.852963 270.570632,192.22709 266.973298,192.22709 C262.181362,192.22709 260.069394,196.050948 260.069394,199.560376 L260.069394,199.560376 Z M262.068663,198.104313 C262.41014,195.451392 264.234727,193.711329 266.831298,193.711329 C269.42787,193.711329 271.253584,195.451392 271.597314,198.104313 L262.068663,198.104313 Z M272.974489,176.942932 C273.402743,177.344138 274.032727,177.537979 274.837394,177.537979 C275.700663,177.50417 276.323886,177.310329 276.701425,176.942932 C277.082346,176.580043 277.268298,176.023313 277.268298,175.293027 L277.268298,163.946551 C277.268298,159.792487 278.24314,156.707932 280.193949,154.696265 C282.13687,152.669948 285.14141,151.670313 289.194044,151.670313 C292.771092,151.670313 295.366537,152.39609 296.996156,153.855535 C298.555902,155.431059 299.349298,157.910424 299.349298,161.300392 L299.349298,175.293027 C299.349298,176.023313 299.537505,176.585678 299.921806,176.972233 C300.401902,177.354281 301.023997,177.537979 301.782457,177.537979 C302.58487,177.50417 303.20133,177.32836 303.602537,176.997027 C304.012759,176.669075 304.21787,176.107837 304.21787,175.293027 L304.21787,159.677535 C304.21787,156.076821 303.004108,153.314583 300.607013,151.38744 C298.202029,149.460297 294.659917,148.496725 290.008854,148.496725 C287.412283,148.496725 285.061394,148.874265 282.950552,149.622583 C280.845346,150.368646 278.936235,151.511408 277.268298,153.047487 L277.268298,150.974963 C277.268298,150.289757 277.063187,149.738662 276.661981,149.337456 C276.263029,148.938503 275.647695,148.730011 274.837394,148.730011 C274.138663,148.730011 273.508679,148.927233 272.974489,149.310408 C272.533838,149.728519 272.324219,150.289757 272.324219,150.985106 L272.324219,175.293027 C272.324219,175.989503 272.533838,176.534963 272.974489,176.942932 L272.974489,176.942932 Z M275.506822,206.093503 C275.506822,206.663757 275.933949,206.891408 276.476029,206.891408 L281.812298,206.891408 C285.578679,206.891408 287.744743,205.125424 287.744743,201.871821 C287.744743,195.080614 277.530886,198.560741 277.530886,195.53817 C277.530886,194.624186 278.332171,193.996456 279.188679,193.996456 L285.550505,193.996456 C286.063283,193.996456 286.491537,193.767678 286.491537,193.198551 C286.491537,192.655344 286.063283,192.398392 285.550505,192.398392 L279.242775,192.398392 C277.131933,192.398392 275.818997,193.826281 275.818997,195.763567 C275.818997,200.558884 286.037362,196.963805 286.037362,201.700519 C286.037362,204.21144 284.437044,205.295598 282.725156,205.295598 L276.476029,205.295598 C275.933949,205.295598 275.506822,205.552551 275.506822,206.093503 L275.506822,206.093503 Z M290.202695,199.560376 C290.202695,204.440217 293.227521,206.892535 297.733203,206.892535 L302.216346,206.892535 C302.727997,206.892535 303.156251,206.663757 303.156251,206.093503 C303.156251,205.552551 302.727997,205.295598 302.216346,205.295598 L297.819981,205.295598 C293.909346,205.295598 292.027283,203.068678 292.027283,200.073154 C292.027283,199.873678 292.056584,199.674202 292.084759,199.474725 L302.357219,199.474725 C303.043552,199.474725 303.326425,199.133249 303.326425,198.560741 C303.326425,194.852963 300.702806,192.22709 297.105473,192.22709 C292.313537,192.22709 290.202695,196.050948 290.202695,199.560376 L290.202695,199.560376 Z M292.200838,198.104313 C292.542314,195.451392 294.366902,193.711329 296.9646,193.711329 C299.561171,193.711329 301.385759,195.451392 301.730616,198.104313 L292.200838,198.104313 Z" id="Fill-1" fill="#FEFEFE" mask="url(#mask-2)"></path>
            </g>
        </g>
    </g>
</svg>